Coordinates
version=1
nRows=11
nColumns=36
inDegrees=yes

Units are S.I. units (second, meters, Newtons, ...)
If the header above contains a line with 'inDegrees', this indicates whether rotational values are in degrees (yes) or radians (no).

endheader
time	pelvis_tilt	pelvis_list	pelvis_rotation	pelvis_tx	pelvis_ty	pelvis_tz	hip_flexion_r	hip_adduction_r	hip_rotation_r	knee_angle_r	knee_angle_r_beta	ankle_angle_r	subtalar_angle_r	mtp_angle_r	hip_flexion_l	hip_adduction_l	hip_rotation_l	knee_angle_l	knee_angle_l_beta	ankle_angle_l	subtalar_angle_l	mtp_angle_l	lumbar_extension	lumbar_bending	lumbar_rotation	arm_flex_r	arm_add_r	arm_rot_r	elbow_flex_r	pro_sup_r	arm_flex_l	arm_add_l	arm_rot_l	elbow_flex_l	pro_sup_l
      0.00000000	     22.25393492	      9.96547168	     10.09326489	      1.19817501	      0.97357913	      0.06784932	    -29.52124582	      0.53371927	      6.92936360	      1.99572084	      0.03483190	     15.54259878	     -1.91635814	     -7.38026115	     -8.07139546	      2.92279120	      6.55255054	      3.59526004	      0.06274913	      7.46062229	    -15.84247688	     -7.38026115	    -26.68132892	     -3.44828408	     -6.46112443	     46.41493070	      2.94763962	     49.96576998	    122.07906521	     78.67219692	     38.06262929	      6.85441077	     60.07630530	    116.81926931	     91.00817515
      0.01666670	     22.39032440	      8.23478480	     10.81176995	      1.19713128	      0.97000065	      0.06582621	    -29.40510953	      2.90224800	      9.86099563	      1.42250226	      0.02482735	     14.64517616	     -5.84632332	     -7.42658515	     -7.74047651	      0.39834302	      6.68079066	      0.43912949	      0.00766426	     11.59083553	    -10.64994289	     -7.42658515	    -26.95432838	     -0.23749666	     -4.16395988	     51.02501706	     -0.04717051	     59.83977042	    128.04277577	     94.86154545	     39.81794300	      7.02995612	     60.93431656	    119.92190662	     99.07684482
      0.03333330	     22.93054745	      8.01954289	      9.13263611	      1.18867656	      0.96977395	      0.06702111	    -29.23514760	      2.60872378	      9.57887853	      2.35488370	      0.04110047	     14.63160426	     -6.23299131	     -7.45072238	     -7.26247253	     -0.07842016	      3.62577984	      0.17878834	      0.00312045	     13.61048832	     -7.23216413	     -7.45072238	    -28.37597340	     -0.27056859	     -3.31341911	     52.76913567	      2.56046684	     59.49877119	    127.50271605	     98.23552540	     41.40203740	      6.15289343	     60.76436960	    121.31634532	    103.65310604
      0.05000000	     22.59701018	      8.02122629	      8.48763490	      1.18777588	      0.97082945	      0.06789828	    -28.52093475	      2.16351882	      8.90853432	      2.91706792	      0.05091244	     15.69937790	     -5.59073539	     -7.46036152	     -6.62815460	     -0.25433345	      2.11655817	      0.13424718	      0.00234306	     14.90163446	     -5.38236127	     -7.46036152	    -28.26527884	     -0.52439286	     -3.13061486	     52.99977133	      3.93569125	     59.89896034	    126.19037582	     97.82166219	     41.82567501	      5.66436089	     60.69665538	    121.44881823	    103.21351267
      0.06666670	     21.74979547	      7.92184472	      8.17044285	      1.18849255	      0.96996954	      0.06825544	    -27.28428340	      1.92736802	      7.68650937	      3.58593582	      0.06258639	     16.72500220	     -4.38869698	     -7.47055055	     -5.82842849	     -0.29714948	      0.70840105	      0.12337436	      0.00215329	     15.39308729	     -4.21319356	     -7.47055055	    -27.50244449	     -0.58395698	     -2.63080808	     52.43323139	      4.26351724	     60.24263079	    125.61727896	     99.04083066	     41.57276523	      5.54378827	     60.71340338	    121.35379637	    104.51766667
      0.08333330	     21.16928943	      8.15006749	      7.82412953	      1.18899278	      0.96962257	      0.06885510	    -26.36318300	      1.43458957	      7.10489318	      4.26390464	      0.07441918	     17.17511590	     -3.97115210	     -7.47582108	     -5.44392182	     -0.04446210	     -0.23223220	      0.12708495	      0.00221805	     14.84665810	     -4.13907431	     -7.47582108	    -27.00441255	     -0.96295381	     -2.22508774	     51.79484384	      4.47032350	     60.55330177	    125.20532637	     98.14557506	     41.33650582	      5.49010926	     60.61722038	    121.46151362	    103.50046501
      0.10000000	     20.71925819	      8.46555360	      7.64499900	      1.18999581	      0.97006146	      0.06933722	    -25.53644471	      0.95786374	      6.11692733	      5.04776134	      0.08810006	     17.70633278	     -3.18897625	     -7.47891259	     -5.34655354	      0.30890780	     -0.54392269	      0.14038244	      0.00245014	     13.80121863	     -4.67490447	     -7.47891259	    -26.58113504	     -1.32524812	     -2.11025185	     51.13748563	      4.56330352	     60.99128371	    124.88435848	     95.96304235	     41.20344641	      5.42474696	     60.94213579	    121.85529874	    100.92041089
      0.11666670	     20.19603139	      8.70155968	      7.45686369	      1.18544903	      0.97189344	      0.06765135	    -24.35710598	      0.53565539	      5.59929476	      6.03542916	      0.10533811	     17.75100902	     -2.90627228	     -7.48498374	     -4.90878887	      0.61502643	     -0.76367032	      0.16394436	      0.00286137	     12.47462293	     -5.45091369	     -7.48498374	    -26.26358677	     -1.55358254	     -2.31779471	     50.55767922	      4.52250072	     61.61847339	    124.88214604	     98.67265128	     41.07693941	      5.21911503	     60.84677515	    122.14719403	    104.44936372
      0.13333330	     19.88409612	      9.09449330	      7.47480343	      1.18615036	      0.96991023	      0.06784703	    -23.45426418	      0.08327254	      4.59603833	      6.98844039	      0.12197129	     18.00726484	     -2.12229906	     -7.48856513	     -4.64856463	      0.99387444	     -0.66054718	      0.20104056	      0.00350882	     11.13592620	     -6.54437333	     -7.48856513	    -26.16811814	     -1.86807811	     -2.49182055	     50.44422490	      4.51517876	     62.03457570	    125.02134365	     97.27239517	     41.14088420	      5.29515854	     61.31567301	    122.57203772	    103.08687694
      0.15000000	     19.91105853	      9.54242555	      7.25308092	      1.18662047	      0.96808753	      0.06886940	    -22.83291462	     -0.40649694	      3.93019010	      8.02934722	      0.14013855	     18.42651205	     -1.63888465	     -7.49138461	     -4.78793563	      1.39458555	     -0.94705024	      0.27104041	      0.00473055	      9.99587301	     -7.22483484	     -7.49138461	    -26.32878880	     -2.41788890	     -2.50422683	     50.44156443	      4.67422915	     61.96900157	    125.16879936	     97.40868282	     41.34678703	      5.24444603	     61.17750987	    122.76847664	    103.67047996
      0.16666670	     19.99015320	     10.05092865	      7.07328624	      1.18704262	      0.96925978	      0.06974719	    -22.50728182	     -0.95200860	      3.28953667	      8.72002923	      0.15219322	     18.98238422	     -0.99579598	     -7.49415471	     -4.89420876	      1.82076679	     -1.05881911	      0.38790621	      0.00677024	      8.97804863	     -7.93167009	     -7.49415471	    -26.54168167	     -3.03414869	     -2.46865121	     50.37293082	      4.69183161	     61.87951098	    125.29881450	     97.03834472	     41.45436833	      5.06707361	     61.15918043	    122.96904447	    103.38371113
